<?xml version="1.0" encoding="UTF-8"?>
<svg version="1.1" xmlns="http://www.w3.org/2000/svg" width="1000" height="1000">
<path d="M0 0 C2.98062717 6.02828062 5.9520852 12.06101608 8.91723633 18.09692383 C9.92685164 20.14939215 10.93855518 22.20083464 11.95239258 24.2512207 C13.40997802 27.19995675 14.85999381 30.15231019 16.30859375 33.10546875 C16.76278183 34.02023483 17.21696991 34.93500092 17.68492126 35.87748718 C18.10528152 36.73800186 18.52564178 37.59851654 18.95874023 38.48510742 C19.32958237 39.23789474 19.7004245 39.99068207 20.08250427 40.76628113 C21.06665515 43.16227746 21.57188891 45.45054031 22 48 C23.85625 48.37125 23.85625 48.37125 25.75 48.75 C31.64826858 50.04818352 37.30344763 52.01439968 43 54 C42.7525 55.19625 42.505 56.3925 42.25 57.625 C42.00467529 58.88993286 42.00467529 58.88993286 41.75439453 60.18041992 C41 63 41 63 39.58544922 65.6887207 C37.31203542 70.62050462 36.29295078 74.46201844 37.75390625 79.70617676 C40.8166305 87.62668531 44.89908534 95.07317518 48.875 102.5625 C50.11827193 104.97021277 51.3475545 107.38495196 52.57592773 109.80029297 C54.97307557 114.5028502 57.39256973 119.19293771 59.83056641 123.87451172 C63.39004562 130.72516639 66.76335419 137.64578727 70.0625 144.625 C74.44586192 153.78145189 78.91009453 162.89663529 83.39453125 172.00390625 C83.96544998 173.16436462 84.53636871 174.324823 85.12458801 175.52044678 C88.01989414 181.40542906 90.91899664 187.28848416 93.82446289 193.16845703 C94.89096915 195.33487165 95.95730187 197.50137171 97.0234375 199.66796875 C97.52579422 200.68105606 98.02815094 201.69414337 98.54573059 202.7379303 C99.00163071 203.66641281 99.45753082 204.59489532 99.92724609 205.55151367 C100.32914154 206.36561203 100.73103699 207.17971039 101.14511108 208.01847839 C102 210 102 210 102 212 C103.25554688 211.84660156 104.51109375 211.69320312 105.8046875 211.53515625 C114.21818068 210.69380693 122.67733713 210.63468725 131.125 210.4375 C132.8619877 210.39422119 134.598967 210.35060422 136.3359375 210.30664062 C140.55720499 210.20052656 144.7785598 210.09899471 149 210 C152.41537764 271.32312259 152.41537764 271.32312259 153 296 C150.03 296 147.06 296 144 296 C158.85 325.7 158.85 325.7 174 356 C173.67386719 351.22144531 173.34773437 346.44289063 173.01171875 341.51953125 C169.44325002 288.83788042 169.44325002 288.83788042 168.0703125 263.62109375 C167.98159378 262.00147484 167.98159378 262.00147484 167.89108276 260.34913635 C164.86528464 203.05468485 163.68593308 145.84310672 163.85594553 88.48215413 C163.8790462 80.54143971 163.88947821 72.60071992 163.89935279 64.65997982 C163.91978104 48.4399469 163.95451154 32.21998256 164 16 C187.59049913 15.95399373 211.17582976 15.91587733 234.76293945 16.37231445 C238.34512474 16.44050034 241.92740153 16.49867974 245.50976562 16.55664062 C247.81251047 16.59838454 250.11524547 16.64067669 252.41796875 16.68359375 C254.00776802 16.70866249 254.00776802 16.70866249 255.62968445 16.73423767 C256.58873184 16.75418289 257.54777924 16.77412811 258.53588867 16.79467773 C259.79909187 16.81799416 259.79909187 16.81799416 261.08781433 16.84178162 C263 17 263 17 264 18 C264.01156396 19.99506793 263.96480396 21.99051154 263.89453125 23.984375 C262.94240466 39.61298674 262.94240466 39.61298674 269.00463867 53.2800293 C271.55920958 55.69603677 274.21179901 57.85358441 277 60 C278.207047 61.27546262 279.38073102 62.58435392 280.5 63.9375 C281.03496094 64.55367188 281.56992187 65.16984375 282.12109375 65.8046875 C283.61921489 67.55509099 285.10998951 69.31104958 286.59765625 71.0703125 C292.60488799 78.15542828 298.76683114 85.0467115 305.13452148 91.81030273 C308.56318561 95.45298965 311.91434198 99.13926129 315.1796875 102.9296875 C319.18023553 107.47966702 323.3405996 111.88886169 327.45800781 116.33300781 C329.85435266 118.92360987 332.24061996 121.52338794 334.625 124.125 C335.42164063 124.99382812 336.21828125 125.86265625 337.0390625 126.7578125 C339.7608739 129.73352493 342.47270757 132.71830448 345.18505859 135.70263672 C345.6486528 136.21265732 346.11224701 136.72267792 346.58988953 137.24815369 C347.72662672 138.49873849 348.86331797 139.74936505 350 141 C349.99777939 140.08293274 349.99555878 139.16586548 349.99327087 138.2210083 C349.96635408 126.56401398 349.94821911 114.90702056 349.9375 103.25 C349.93664398 102.32560749 349.93578796 101.40121498 349.93490601 100.44881058 C349.91184802 72.28681952 350.06160744 44.14928113 351 16 C373.50905883 15.84502819 396.01137475 16.06920717 418.51762009 16.40571976 C420.69419374 16.43759804 422.87078629 16.46757097 425.0473938 16.49703979 C429.16061093 16.5530945 433.2736462 16.61776982 437.38671875 16.68359375 C438.64553864 16.70031128 439.90435852 16.71702881 441.20132446 16.73425293 C442.92057632 16.76416321 442.92057632 16.76416321 444.67456055 16.79467773 C445.68294479 16.81022202 446.69132904 16.8257663 447.73027039 16.84178162 C450 17 450 17 451 18 C451.08834737 19.42822309 451.10690011 20.86082492 451.09765625 22.29174805 C451.09440338 23.22429413 451.09115051 24.15684021 451.08779907 25.11764526 C451.07527603 26.67396164 451.07527603 26.67396164 451.0625 28.26171875 C451.05367353 30.54077072 451.04505874 32.81982351 451.03662109 35.09887695 C451.03039734 36.32885406 451.02417358 37.55883118 451.01776123 38.82608032 C450.98689012 45.5376827 450.97918857 52.24927457 450.9765625 58.9609375 C450.9762566 59.67704256 450.9759507 60.39314762 450.97563553 61.13095284 C450.96057488 147.09942951 453.35780176 233.12862298 462.06933594 347.94506836 C462.19863977 349.56809239 462.32791292 351.19111887 462.45715332 352.81414795 C462.69549928 355.80592083 462.9394615 358.7971535 463.18737793 361.78814697 C463.76297572 368.87118666 464.17850062 375.8909815 464 383 C452.75752832 384.38138633 441.51685448 385.55348185 430.23046875 386.5078125 C428.69166793 386.63938329 427.15287518 386.77104844 425.61408997 386.90280151 C422.42363259 387.17524849 419.23299963 387.44551624 416.04223633 387.71435547 C411.98652214 388.05640119 407.93146323 388.40565103 403.87652111 388.75671577 C400.71180887 389.02960972 397.54671275 389.29782998 394.38149452 389.564785 C392.88687754 389.69154199 391.39239378 389.81988171 389.89806175 389.94995499 C381.25141849 390.70038388 372.68424939 391.18420842 364 391 C363.23025667 381.22765499 362.46494481 371.45497319 361.7049036 361.68186855 C361.35164865 357.14118101 360.99701 352.60061142 360.63891602 348.06030273 C359.11418352 328.71597349 357.59702742 309.40011063 357 290 C356.39542969 289.72027344 355.79085937 289.44054687 355.16796875 289.15234375 C351.17958945 287.03239439 348.42654726 284.27964178 347 280 C346.01 279.67 345.02 279.34 344 279 C342.703125 277.6796875 342.703125 277.6796875 341.25 275.875 C337.69497101 271.68514441 333.89447259 267.80756989 330 263.9375 C329.35708008 263.2978833 328.71416016 262.6582666 328.05175781 261.99926758 C326.03643811 259.99755154 324.01865487 257.99835231 322 256 C306.55566526 240.71099621 306.55566526 240.71099621 301.40625 234.62890625 C299.08380984 231.93874639 296.54323813 229.47920431 294 227 C290.05773926 223.11143357 286.30386503 219.15442318 282.71484375 214.93359375 C280.02544067 211.90112331 277.11762612 209.09617843 274.2109375 206.2734375 C271.64095708 203.63080745 269.34822154 200.84145972 267 198 C266.81473731 214.31443864 267.36532415 230.52351571 268.25 246.8125 C268.31558105 248.05123871 268.38116211 249.28997742 268.44873047 250.56625366 C270.14563701 282.54220905 272.29824552 314.4965788 274.921875 346.41015625 C274.99313599 347.27737808 275.06439697 348.14459991 275.13781738 349.0381012 C275.46140349 352.95311191 275.79202359 356.86730818 276.13671875 360.78051758 C276.77970412 368.20795064 277.14116523 375.54396937 277 383 C265.75752832 384.38138633 254.51685448 385.55348185 243.23046875 386.5078125 C241.69166793 386.63938329 240.15287518 386.77104844 238.61408997 386.90280151 C235.42363259 387.17524849 232.23299963 387.44551624 229.04223633 387.71435547 C224.98652214 388.05640119 220.93146323 388.40565103 216.87652111 388.75671577 C213.71180887 389.02960972 210.54671275 389.29782998 207.38149452 389.564785 C205.88687754 389.69154199 204.39239378 389.81988171 202.89806175 389.94995499 C194.25141849 390.70038388 185.68424939 391.18420842 177 391 C176.31479376 383.63403289 175.93346686 376.39811576 176 369 C162.52037713 375.25743177 162.52037713 375.25743177 149.3125 382.0625 C142.40842563 385.79987128 135.43619496 389.36636224 128.38720703 392.82275391 C126.64273587 393.68303617 124.90203159 394.55096883 123.16357422 395.42333984 C120.09475173 396.96242992 117.01700641 398.48241729 113.9375 400 C112.96167969 400.49346924 111.98585938 400.98693848 110.98046875 401.49536133 C101.63374751 406.05495402 101.63374751 406.05495402 96 405 C93.75817082 402.45230773 92.2805398 399.75409283 90.85668945 396.68994141 C90.45193893 395.8287973 90.04718842 394.9676532 89.63017273 394.08041382 C89.19147354 393.13864288 88.75277435 392.19687195 88.30078125 391.2265625 C83.77391014 381.63736372 79.11000151 372.12600246 74.35546875 362.6484375 C74.02422123 361.98756386 73.69297371 361.32669022 73.35168839 360.6457901 C70.96648345 355.8874234 68.57745386 351.13098285 66.1875 346.375 C63.77575239 341.57542248 61.36548619 336.77511101 58.95858192 331.97310257 C58.01543738 330.09314019 57.06983987 328.21442713 56.12406921 326.33578491 C52.25732793 318.62414777 48.56575222 310.85512783 45 303 C32.84585087 302.75189351 20.80526088 303.65172827 8.6875 304.5 C5.57612189 304.7159438 2.46467086 304.93055341 -0.64701843 305.14196777 C-2.56941971 305.27274055 -4.49164601 305.40612215 -6.41365051 305.54260254 C-11.62431487 305.89889545 -16.77710757 306.06393049 -22 306 C-22.12076904 307.22404541 -22.24153809 308.44809082 -22.3659668 309.70922852 C-23.03766152 315.73496484 -24.09254795 321.68323508 -25.14453125 327.65234375 C-25.35559006 328.86531631 -25.56664886 330.07828888 -25.78410339 331.32801819 C-26.45764314 335.19830298 -27.13464876 339.06796817 -27.8125 342.9375 C-31.08056107 361.59661228 -34.20505999 380.26361681 -37 399 C-46.46472014 399.36157626 -55.59782616 397.97782364 -64.93359375 396.62890625 C-66.66081957 396.38415506 -68.388121 396.13993688 -70.11549377 395.89622498 C-73.71588065 395.38680534 -77.3155777 394.87284248 -80.91479492 394.35522461 C-85.52955955 393.69166368 -90.14549601 393.0367301 -94.76191616 392.3847971 C-98.31980612 391.88189176 -101.87725535 391.37592824 -105.43455696 390.86887932 C-107.13734345 390.62626277 -108.84021767 390.38426113 -110.54318047 390.14288521 C-112.91519915 389.8059161 -115.28664566 389.46518394 -117.65795898 389.12329102 C-118.71225098 388.97439674 -118.71225098 388.97439674 -119.7878418 388.82249451 C-122.64905482 388.40645026 -125.24880302 387.91706566 -128 387 C-127.51897343 375.27260145 -125.50464235 363.7711313 -123.61645508 352.20629883 C-123.06224584 348.8109429 -122.51581249 345.4144057 -121.97070312 342.01757812 C-121.61763864 339.83065629 -121.26413794 337.64380482 -120.91015625 335.45703125 C-120.74862564 334.45573685 -120.58709503 333.45444244 -120.42066956 332.42280579 C-119.41097979 326.25133366 -118.25918421 320.12556287 -117 314 C-120.63 314 -124.26 314 -128 314 C-128.71880532 306.65403908 -129.43064178 299.30744727 -130.13623047 291.96020508 C-130.37686213 289.46458025 -130.61934564 286.96913322 -130.86376953 284.47387695 C-131.216224 280.87236776 -131.56185496 277.27025649 -131.90625 273.66796875 C-132.0156189 272.56543259 -132.12498779 271.46289642 -132.2376709 270.32695007 C-132.87956426 263.52820807 -133.13389526 256.82807378 -133 250 C-134.18078125 250.2165625 -135.3615625 250.433125 -136.578125 250.65625 C-138.13538373 250.9376823 -139.69267724 251.21892223 -141.25 251.5 C-142.02730469 251.64308594 -142.80460937 251.78617188 -143.60546875 251.93359375 C-144.35957031 252.06894531 -145.11367188 252.20429687 -145.890625 252.34375 C-146.58188477 252.46943359 -147.27314453 252.59511719 -147.98535156 252.72460938 C-150 253 -150 253 -154 253 C-154.14695312 254.32837891 -154.14695312 254.32837891 -154.296875 255.68359375 C-157.93214939 285.79996179 -169.27893255 313.36814952 -187 338 C-187.73992187 339.04542969 -188.47984375 340.09085938 -189.2421875 341.16796875 C-193.20313571 346.61603453 -197.42231909 351.75836874 -201.9375 356.75 C-202.41050537 357.2761792 -202.88351074 357.8023584 -203.37084961 358.34448242 C-204.53702924 359.60471904 -205.76389699 360.80826991 -207 362 C-207.66 362 -208.32 362 -209 362 C-209 362.66 -209 363.32 -209 364 C-242.76718447 394.58705579 -292.1341851 402.65811711 -336 401 C-342.44514794 400.5234109 -348.70851084 399.4553772 -355 398 C-355.7513623 397.82839355 -356.50272461 397.65678711 -357.27685547 397.47998047 C-393.96514454 388.81327254 -422.81323149 366.11497018 -442.55786133 334.42260742 C-467.29280704 293.69307394 -479.20513588 246.09057763 -479.25 198.625 C-479.25100708 197.87977081 -479.25201416 197.13454163 -479.25305176 196.36672974 C-479.24154713 183.71281991 -478.43595646 171.44495579 -476 159 C-475.85546387 158.25057129 -475.71092773 157.50114258 -475.56201172 156.72900391 C-468.8810297 123.25010729 -453.38209902 93.80172646 -430 69 C-429.34 68.27554688 -428.68 67.55109375 -428 66.8046875 C-411.88936021 49.77867045 -390.72265998 38.18212296 -369 30 C-368.34241699 29.74879395 -367.68483398 29.49758789 -367.00732422 29.23876953 C-344.98362524 21.02335399 -321.6941024 20.39528644 -298.47515869 20.66705322 C-295.73965702 20.69450247 -293.00423897 20.70287138 -290.26862144 20.71075249 C-255.53740781 20.81345683 -255.53740781 20.81345683 -245 23 C-245.76046807 33.63999131 -246.52510518 44.27967396 -247.2950964 54.9189806 C-247.65248533 59.85900915 -248.00842626 64.79913322 -248.36108398 69.73950195 C-248.7013405 74.50539847 -249.04536659 79.27100913 -249.39203072 84.03644371 C-249.52375719 85.85644508 -249.65411493 87.67654605 -249.78309441 89.49674416 C-249.96369369 92.04213174 -250.14911466 94.5871248 -250.33569336 97.13208008 C-250.38820251 97.88805481 -250.44071167 98.64402954 -250.49481201 99.4229126 C-250.72278448 102.474078 -251.02764737 105.08294212 -252 108 C-262.61355514 108.10439562 -273.18129149 108.02312703 -283.78613281 107.53955078 C-311.4784331 106.31258454 -337.14446974 107.85555651 -359 127 C-359.67546875 127.58136719 -360.3509375 128.16273438 -361.046875 128.76171875 C-376.88053383 143.39864755 -384.86027397 167.13799789 -386.20629883 188.2331543 C-386.30345757 191.61663845 -386.32910742 194.99017132 -386.3125 198.375 C-386.30686035 199.59598389 -386.3012207 200.81696777 -386.29541016 202.07495117 C-385.85103389 235.78815064 -376.99575194 277.74945586 -352.02734375 302.43359375 C-341.64603458 311.23426488 -329.86847464 314.66533614 -316.43505859 313.73144531 C-299.37260672 312.17348331 -280.32648047 307.29747878 -268.375 294.3125 C-260.30776116 284.49394372 -253.93765801 273.06970973 -250 261 C-250.80385132 260.96463638 -251.60770264 260.92927277 -252.43591309 260.89283752 C-260.08339105 260.55614105 -267.73080392 260.21801441 -275.37815094 259.87835789 C-279.30789418 259.70386702 -283.23765872 259.52989221 -287.16748047 259.35717773 C-290.97363458 259.18987804 -294.77972156 259.02111714 -298.58576965 258.85142326 C-300.02388802 258.78754612 -301.46202826 258.72415924 -302.90019226 258.66131783 C-310.58622535 258.32512711 -318.27031256 257.95478592 -325.95117188 257.51538086 C-326.64338081 257.47899537 -327.33558975 257.44260988 -328.04877472 257.4051218 C-332.88450549 257.11549451 -332.88450549 257.11549451 -334 256 C-334.50329103 246.51596814 -333.74942274 236.9688036 -333.16015625 227.50390625 C-333.07261982 226.05713899 -332.9853396 224.61035621 -332.89830017 223.16355896 C-332.71668465 220.15909196 -332.5323564 217.15480806 -332.34594727 214.15063477 C-332.1079609 210.312452 -331.87638156 206.47391421 -331.6467371 202.63522434 C-331.46807535 199.65902744 -331.28631777 196.68302585 -331.10360527 193.70707512 C-331.01700716 192.29142585 -330.93129524 190.87572207 -330.84651375 189.45996284 C-330.72768255 187.48426861 -330.60428788 185.50885046 -330.48071289 183.53344727 C-330.37745445 181.8535244 -330.37745445 181.8535244 -330.27210999 180.1396637 C-330.00450258 177.05195179 -329.55278102 174.04841707 -329 171 C-320.92946949 170.90216715 -312.89706506 170.92459047 -304.83984375 171.4375 C-304.13787369 171.48203812 -303.43590363 171.52657623 -302.71266174 171.57246399 C-301.23176662 171.66686503 -299.75087582 171.76133396 -298.26998901 171.85586548 C-262.10910473 174.09040194 -224.92669251 175.31845297 -189 170 C-187.36329206 169.76164448 -185.72657254 169.52336855 -184.08984375 169.28515625 C-165.49612854 166.63395073 -165.49612854 166.63395073 -146.99609375 163.41845703 C-143.28349981 162.89992818 -139.74733077 162.93539085 -136 163 C-134.58695141 170.48767158 -133.18199418 177.97682977 -131.7824707 185.46704102 C-131.30611311 188.0113301 -130.82795083 190.55528204 -130.34790039 193.09887695 C-129.65548721 196.76945774 -128.96972043 200.44122955 -128.28515625 204.11328125 C-127.96479149 205.79989616 -127.96479149 205.79989616 -127.63795471 207.52058411 C-126.37541979 214.33560435 -125.48997578 221.08572928 -125 228 C-124.01 227.67 -123.02 227.34 -122 227 C-119.98345786 226.77091176 -117.96131561 226.58946708 -115.9375 226.4375 C-114.87402344 226.35371094 -113.81054688 226.26992188 -112.71484375 226.18359375 C-109.71883896 226.03552622 -106.76536134 225.98131128 -103.76782227 225.98852539 C-102.42591576 225.99101036 -102.42591576 225.99101036 -101.05690002 225.99354553 C-100.37812302 225.99567551 -99.69934601 225.99780548 -99 226 C-98.79971191 224.91589844 -98.59942383 223.83179688 -98.39306641 222.71484375 C-95.47936419 207.37127661 -91.71965936 192.24536297 -87.90538788 177.10646057 C-87.36904648 174.97635533 -86.83438043 172.84583548 -86.30010986 170.71520996 C-80.32544214 146.90175456 -74.33800773 123.06313468 -67.02734375 99.6171875 C-66.73359863 98.67069336 -66.43985352 97.72419922 -66.13720703 96.74902344 C-65.61709388 95.09414596 -65.08457009 93.44307034 -64.53466797 91.79785156 C-61.70173379 82.92613187 -65.09998895 77.16640131 -69 69.25 C-69.48895752 68.24098633 -69.97791504 67.23197266 -70.48168945 66.19238281 C-72.85770399 61.30559355 -75.27376241 56.44044846 -77.73046875 51.59375 C-78.14619141 50.77229492 -78.56191406 49.95083984 -78.99023438 49.10449219 C-79.77286759 47.56539865 -80.5616843 46.02942973 -81.35742188 44.49707031 C-84 39.32627978 -84 39.32627978 -84 36 C-83.39454346 35.7097998 -82.78908691 35.41959961 -82.1652832 35.12060547 C-71.36259621 29.941691 -60.56105812 24.76054908 -49.77589417 19.54522705 C-46.70774847 18.06162539 -43.63857483 16.58025609 -40.56665039 15.10449219 C-34.95981535 12.40914292 -29.36681032 9.69302703 -23.8125 6.890625 C-22.86600586 6.42027832 -21.91951172 5.94993164 -20.94433594 5.46533203 C-19.21637934 4.60573782 -17.49494438 3.73283122 -15.78222656 2.84326172 C-15.01362305 2.46443848 -14.24501953 2.08561523 -13.453125 1.6953125 C-12.48101074 1.2005542 -12.48101074 1.2005542 -11.48925781 0.69580078 C-7.68878224 -0.3665134 -3.92081008 -0.12895056 0 0 Z M-1 210 C-2.47047336 213.91063224 -2.47047336 213.91063224 -3 218 C-1.02 218 0.96 218 3 218 C1.73025028 213.58477891 1.73025028 213.58477891 -1 210 Z " fill="#010000" transform="translate(502,298)"/>
<path d="M0 0 C4.09944609 -0.00540788 8.19889124 -0.00861973 12.29833984 -0.01147461 C13.44435165 -0.01301292 14.59036346 -0.01455124 15.77110291 -0.01613617 C25.53117838 -0.0212156 35.28242507 0.12302347 45.0390625 0.37231445 C47.69000338 0.43913859 50.34105302 0.49805335 52.9921875 0.55664062 C54.71615715 0.59849463 56.44011606 0.64079428 58.1640625 0.68359375 C58.93803375 0.70030624 59.712005 0.71701874 60.50942993 0.73423767 C65.40005855 0.8667124 70.15358702 1.32496145 75 2 C74.98839844 2.62455078 74.97679687 3.24910156 74.96484375 3.89257812 C74.41117408 15.74363588 74.41117408 15.74363588 77.53125 26.85546875 C79.58010965 28.76204648 81.74540911 30.34458489 84 32 C85.44172039 33.66978915 86.83483448 35.38228675 88.1875 37.125 C92.85802279 42.94494088 97.90223789 48.35122609 103.00390625 53.7890625 C105.78664354 56.7576582 108.47174846 59.79766342 111.12890625 62.87890625 C113.70392946 65.79798266 116.35304715 68.64620346 119 71.5 C122.79261625 75.58971226 126.52781377 79.7132729 130.1796875 83.9296875 C134.36920948 88.69459447 138.69875111 93.33606346 143 98 C143.48662109 98.52787109 143.97324219 99.05574219 144.47460938 99.59960938 C146.97497431 102.31136579 149.47697881 105.02159716 151.98046875 107.73046875 C153.94416661 109.85554916 155.90509374 111.98312256 157.86328125 114.11328125 C163.70546416 120.46438585 169.58841147 126.77591265 175.5 133.0625 C176.18288086 133.78920898 176.86576172 134.51591797 177.56933594 135.26464844 C178.21676758 135.95204102 178.86419922 136.63943359 179.53125 137.34765625 C180.10423828 137.95617432 180.67722656 138.56469238 181.26757812 139.19165039 C183.14940175 141.15594965 185.07649646 143.07649646 187 145 C187 97.15 187 49.3 187 0 C217.46758829 0 217.46758829 0 232.0390625 0.37231445 C234.69000338 0.43913859 237.34105302 0.49805335 239.9921875 0.55664062 C241.71615715 0.59849463 243.44011606 0.64079428 245.1640625 0.68359375 C245.93803375 0.70030624 246.712005 0.71701874 247.50942993 0.73423767 C248.24575653 0.75418289 248.98208313 0.77412811 249.74072266 0.79467773 C250.37289703 0.81022202 251.00507141 0.8257663 251.65640259 0.84178162 C255.12517712 1.07596173 258.55269846 1.55021293 262 2 C262.00879936 3.56158089 262.00879936 3.56158089 262.01777649 5.15470886 C262.5703871 100.68622672 264.17658693 196.15891427 273.42529297 317.87988281 C273.58277512 319.8458416 273.58277512 319.8458416 273.74343872 321.85151672 C273.93984613 324.29147828 274.1384906 326.73126123 274.33981323 329.17082214 C274.47082932 330.79254082 274.47082932 330.79254082 274.60449219 332.44702148 C274.68125183 333.3802977 274.75801147 334.31357391 274.83709717 335.27513123 C275.0113261 338.18945112 275.02719673 341.08117022 275 344 C266.40283253 344.78654219 257.80532055 345.56917527 249.20735168 346.34690857 C245.21439334 346.70821538 241.22156355 347.07083501 237.22900391 347.43652344 C233.37135473 347.78980525 229.51339924 348.13954893 225.6552124 348.48690796 C224.18801579 348.61961586 222.72093119 348.75356855 221.25396729 348.88882446 C207.10363381 350.1919901 207.10363381 350.1919901 200 350 C198.77020248 346.02346315 198.63107947 341.94850146 198.36743164 337.82250977 C198.31197678 337.00090363 198.25652191 336.17929749 198.1993866 335.33279419 C198.07947578 333.55138224 197.96114971 331.76986307 197.84422493 329.98825264 C197.65859332 327.16765815 197.46770708 324.34746522 197.2752533 321.52732849 C196.72879318 313.50986943 196.18964639 305.49193818 195.65942383 297.47338867 C195.33458402 292.56646845 195.00174597 287.66014434 194.663908 282.75410271 C194.53685919 280.88562443 194.41289081 279.01693403 194.29207039 277.14804268 C194.12287493 274.5337533 193.94354643 271.92033874 193.76196289 269.30688477 C193.71462006 268.53633255 193.66727722 267.76578033 193.61849976 266.97187805 C193.20614183 261.26854897 192.37022486 256.96352194 188.22192383 252.8972168 C187.66406693 252.34281418 187.10621002 251.78841156 186.53144836 251.21720886 C185.62836189 250.34205376 185.62836189 250.34205376 184.70703125 249.44921875 C184.08277756 248.83158157 183.45852386 248.2139444 182.81535339 247.57759094 C180.82139815 245.60697608 178.81758177 243.64678713 176.8125 241.6875 C174.19024227 239.11188006 171.5722889 236.53194532 168.95703125 233.94921875 C168.01399643 233.01920547 168.01399643 233.01920547 167.0519104 232.07040405 C163.41091054 228.46070131 159.94324578 224.77547726 156.6315918 220.85864258 C153.13323783 216.87346096 149.27754126 213.21786446 145.5 209.5 C140.32851061 204.4102087 135.29560967 199.29790534 130.56835938 193.79101562 C128.3265143 191.23090114 125.93499018 188.87769629 123.5 186.5 C119.73507247 182.79143749 116.17172947 178.98121398 112.7421875 174.9609375 C110.7456211 172.71368115 108.63987054 170.61105073 106.5 168.5 C103.22288461 165.26130975 100.15182816 161.93860245 97.15625 158.44140625 C93.52411481 154.32893434 89.7419912 150.35446586 85.97387695 146.36669922 C85.39081787 145.74682129 84.80775879 145.12694336 84.20703125 144.48828125 C83.6860083 143.93696533 83.16498535 143.38564941 82.62817383 142.81762695 C80.65706686 140.61716341 78.82894212 138.31924053 77 136 C76.86619764 149.53919749 77.27511998 163.03490107 77.8125 176.5625 C77.87677689 178.21421204 77.87677689 178.21421204 77.94235229 179.89929199 C78.67142438 198.52369413 79.57244688 217.13776462 80.5625 235.75 C80.65840927 237.57194382 80.65840927 237.57194382 80.7562561 239.43069458 C80.93935704 242.88629519 81.12693037 246.34161866 81.31640625 249.796875 C81.39758698 251.32479927 81.39758698 251.32479927 81.48040771 252.8835907 C81.71008503 256.97438878 81.96498752 261.03489988 82.5 265.09814453 C83.07765131 269.6059684 83.39540311 274.09895817 83.68359375 278.6328125 C83.80683597 280.50024736 83.93012881 282.36767888 84.0534668 284.23510742 C84.11625824 285.19871185 84.17904968 286.16231628 84.2437439 287.15512085 C85.57451728 307.90890698 85.57451728 307.90890698 87.44116211 328.61962891 C87.81947576 332.34901144 88.03910523 336.00827036 88.02075195 339.7590332 C88.01775589 340.55694778 88.01475983 341.35486237 88.01167297 342.17695618 C88.00589485 343.07936287 88.00589485 343.07936287 88 344 C79.40283253 344.78654219 70.80532055 345.56917527 62.20735168 346.34690857 C58.21439334 346.70821538 54.22156355 347.07083501 50.22900391 347.43652344 C46.37135473 347.78980525 42.51339924 348.13954893 38.6552124 348.48690796 C37.18801579 348.61961586 35.72093119 348.75356855 34.25396729 348.88882446 C20.10363381 350.1919901 20.10363381 350.1919901 13 350 C11.87719474 346.63158422 11.65271991 343.70797994 11.38330078 340.16357422 C11.3024472 339.11791684 11.3024472 339.11791684 11.21996021 338.05113506 C11.04097164 335.71927797 10.86790161 333.38702644 10.6953125 331.0546875 C10.57039908 329.39695836 10.44536076 327.73923862 10.32020569 326.08152771 C9.98438462 321.60882387 9.65531676 317.13564825 9.3286705 312.66226578 C9.12539076 309.88034759 8.92061988 307.09854186 8.71572876 304.31674194 C6.39132286 272.64996687 4.67043706 240.98761065 3.40142822 209.26225281 C3.16928634 203.56643394 2.88331829 197.88760397 2.45703125 192.203125 C1.71740382 181.96559006 1.67116404 171.69694487 1.5 161.4375 C1.44770791 158.34078207 1.3941703 155.24410883 1.33703613 152.1474762 C1.3018827 150.24041186 1.26922456 148.33329833 1.2401123 146.4261322 C1.15363783 141.71423686 1.00843937 137.01095837 0.76295471 132.3046875 C-0.00791289 117.42635076 -0.13032863 102.5916494 -0.09765625 87.6953125 C-0.09578557 85.14842761 -0.09436475 82.60154236 -0.09336853 80.05465698 C-0.08997746 74.10195699 -0.08214646 68.14927401 -0.07201904 62.19658267 C-0.06071961 55.4029759 -0.05531314 48.60936806 -0.05032361 41.81575418 C-0.03995851 27.87715903 -0.0224467 13.93858057 0 0 Z " fill="#C33F60" transform="translate(678,326)"/>
<path d="M0 0 C1.38891701 -0.00143509 1.38891701 -0.00143509 2.80589294 -0.00289917 C4.75641956 -0.00357581 6.70694849 -0.00175778 8.6574707 0.00244141 C11.58875816 0.0077539 14.51988938 0.00250092 17.45117188 -0.00390625 C46.61325449 -0.01563392 46.61325449 -0.01563392 53.05859375 2.1328125 C52.65301481 9.23139689 52.24367522 16.32975744 51.83178711 23.42797852 C51.69225981 25.84003856 51.55357637 28.25214758 51.41577148 30.66430664 C51.21693081 34.14222386 51.01500201 37.61995052 50.8125 41.09765625 C50.75203995 42.16676743 50.6915799 43.2358786 50.62928772 44.33738708 C50.27883193 50.2986656 49.77501462 56.20409186 49.05859375 62.1328125 C47.82520264 62.12233887 46.59181152 62.11186523 45.32104492 62.10107422 C40.64854962 62.06427184 35.97606645 62.04169811 31.3034668 62.02294922 C29.29921296 62.01302638 27.29497305 61.99948381 25.29077148 61.98193359 C-5.44730972 61.71993942 -31.8906692 64.53687746 -55.94140625 85.1328125 C-56.6890625 85.76703125 -57.43671875 86.40125 -58.20703125 87.0546875 C-76.6442383 104.04014596 -86.15295887 133.30163947 -87.3125 157.734375 C-88.1480895 198.71577696 -78.67243752 246.20816432 -49.94140625 277.1328125 C-49.40386719 277.71289062 -48.86632812 278.29296875 -48.3125 278.890625 C-38.28350132 288.49232299 -23.31902032 293.08284025 -9.75390625 293.5078125 C10.00668023 292.93779558 34.32327941 287.85254198 49.2578125 274.05859375 C64.05099957 258.23854771 76.05718551 236.94816235 78.05859375 215.1328125 C77.22875977 215.14328613 76.39892578 215.15375977 75.54394531 215.16455078 C56.790785 215.36578681 38.10672377 215.06583718 19.37109375 214.1953125 C17.93679016 214.12996307 17.93679016 214.12996307 16.47351074 214.06329346 C13.72687378 213.9363411 10.98059276 213.80366534 8.234375 213.66796875 C7.42420425 213.62937241 6.61403351 213.59077606 5.77931213 213.55101013 C0.83118327 213.29375606 -4.03148885 212.80134489 -8.94140625 212.1328125 C-8.40042462 191.75803702 -7.38040849 171.46317023 -5.94140625 151.1328125 C2.57572616 151.03711438 11.06750501 151.04031877 19.57556152 151.48454285 C33.72107901 152.22098853 47.8574018 152.32045484 62.01953125 152.31811523 C64.71230765 152.31803381 67.40491448 152.32502581 70.09765625 152.33862305 C93.79726955 152.45595903 116.6426647 150.99284523 139.99609375 147.0078125 C142.46906982 146.58881214 144.94238805 146.1726421 147.41712952 145.76419067 C148.9286319 145.51453628 150.43919498 145.25908572 151.94847107 144.99630737 C156.71108973 144.20708841 161.2302033 144.02516136 166.05859375 144.1328125 C168.7391398 157.84755484 171.3628807 171.57293791 173.87109375 185.3203125 C174.19920044 187.08133301 174.19920044 187.08133301 174.53393555 188.87792969 C175.52652446 194.37571393 176.34168789 199.54372534 176.05859375 205.1328125 C172.37284517 205.80941031 168.68475426 206.47229011 164.99609375 207.1328125 C163.95775391 207.32359375 162.91941406 207.514375 161.84960938 207.7109375 C156.50374898 208.66131268 151.48900311 209.37929917 146.05859375 209.1328125 C146.0328125 210.13957031 146.00703125 211.14632812 145.98046875 212.18359375 C144.46818777 254.44599144 123.1955151 294.67566284 92.68359375 323.3828125 C62.48472636 349.1822046 17.09919139 358.65568155 -21.5546875 355.82421875 C-51.62182575 353.25482285 -76.86358138 341.91194179 -98.94140625 321.1328125 C-99.92173828 320.2665625 -99.92173828 320.2665625 -100.921875 319.3828125 C-133.3096775 289.46583205 -146.72790254 238.98075996 -152.94140625 197.1328125 C-153.11929688 195.93881836 -153.11929688 195.93881836 -153.30078125 194.72070312 C-155.04876279 182.51604628 -155.23571914 170.44407033 -154.94140625 158.1328125 C-154.92335937 156.8334375 -154.9053125 155.5340625 -154.88671875 154.1953125 C-153.46658913 114.7658314 -138.56421901 77.17266147 -111.94140625 48.1328125 C-111.4427002 47.58882813 -110.94399414 47.04484375 -110.43017578 46.484375 C-82.36251568 16.29990494 -41.07443462 -0.09603138 0 0 Z " fill="#CD5252" transform="translate(189.94140625,330.8671875)"/>
<path d="M0 0 C1.16902038 2.43858427 2.33731624 4.8775072 3.50415039 7.31713867 C4.50701695 9.40913108 5.5140657 11.49912343 6.52514648 13.5871582 C8.85080019 18.40767811 11.13122179 23.21811295 13.16015625 28.171875 C16.11728543 35.90360226 16.11728543 35.90360226 21.57421875 41.859375 C24.06565327 42.86322307 26.37738109 43.46031141 29 44 C30.35208914 44.62775567 31.69280293 45.28344014 33 46 C32.39999909 48.50000379 31.70414191 50.8711377 30.875 53.3125 C29.29417146 59.97456311 31.16661153 65.02169866 34.3125 70.875 C35.05559159 72.31005768 35.79632778 73.74633659 36.53515625 75.18359375 C37.13674561 76.34930908 37.13674561 76.34930908 37.75048828 77.53857422 C39.99791914 81.96581102 42.11549323 86.45503578 44.25 90.9375 C52.58145353 108.36223257 61.07950602 125.70598413 69.56170654 143.05767822 C71.05972448 146.12217856 72.55745921 149.18681721 74.05517578 152.25146484 C76.65461441 157.57009965 79.25488958 162.88832475 81.85580444 168.20623779 C82.85742485 170.25422668 83.8589131 172.30228021 84.86026001 174.35040283 C86.26826503 177.22996711 87.67699232 180.10917688 89.0859375 182.98828125 C89.52167587 183.8795874 89.95741425 184.77089355 90.40635681 185.68920898 C93.23622012 191.4690647 96.11372616 197.22110389 99.06103516 202.94213867 C100 205 100 205 100 207 C100.55647217 206.96970703 101.11294434 206.93941406 101.6862793 206.90820312 C115.47089805 206.17535354 129.19686503 205.87297729 143 206 C144.31903609 226.32889974 145.40239018 246.63510935 146 267 C142.68929162 268.00109515 139.69915231 268.10356134 136.25 268.0625 C135.26515625 268.05347656 134.2803125 268.04445313 133.265625 268.03515625 C132.14414062 268.01775391 132.14414062 268.01775391 131 268 C136.86928558 280.48614955 142.91731376 292.87625237 149.10546875 305.20703125 C149.91221542 306.81522232 149.91221542 306.81522232 150.73526001 308.4559021 C153.47876279 313.92166626 156.22831218 319.38430895 158.984375 324.84375 C160.01441827 326.89187913 161.04437009 328.94005426 162.07421875 330.98828125 C162.55602097 331.93838577 163.03782318 332.8884903 163.53422546 333.86738586 C163.97627823 334.74815292 164.41833099 335.62891998 164.8737793 336.53637695 C165.26172165 337.30480423 165.649664 338.07323151 166.04936218 338.86494446 C166.95693186 340.90327244 167.53548861 342.82236274 168 345 C161.38635628 348.41147931 154.7628704 351.80298647 148.12643528 355.16993713 C145.04453397 356.73428752 141.9663143 358.30509478 138.89575195 359.89160156 C135.35863802 361.71879004 131.80682404 363.5162223 128.25390625 365.3125 C127.1629213 365.88121826 126.07193634 366.44993652 124.94789124 367.03588867 C118.58701097 370.21840685 114.1221248 371.67798717 107 371 C106.59507324 370.18942139 106.19014648 369.37884277 105.77294922 368.54370117 C102.11877227 361.2312607 98.45999027 353.92114518 94.79627609 346.61347771 C92.23860904 341.5117757 89.68256257 336.40926327 87.12727737 331.30636787 C85.46336413 327.98373625 83.79869741 324.66148657 82.13232422 321.34008789 C75.6952507 308.50838268 69.26188652 295.67547831 63.0546875 282.73046875 C62.42640549 281.42798943 62.42640549 281.42798943 61.78543091 280.09919739 C61.41264008 279.31518051 61.03984924 278.53116364 60.65576172 277.72338867 C60.33308319 277.04700851 60.01040466 276.37062836 59.677948 275.67375183 C59 274 59 274 59 272 C49.9845337 272.63456351 40.96907295 273.26920592 31.953619 273.90394497 C27.76595699 274.19877771 23.57829317 274.49358476 19.390625 274.78833008 C15.33814685 275.07356116 11.28567373 275.35886369 7.23320389 275.64421272 C5.6985148 275.75226369 4.16382399 275.86029028 2.62913132 275.96829033 C-6.91431928 276.63990576 -16.45740869 277.31626274 -26 278 C-29.55155723 297.52247604 -33.06009381 317.05014988 -36.3125 336.625 C-36.49634247 337.72962585 -36.49634247 337.72962585 -36.68389893 338.85656738 C-38.04915131 347.07297573 -39.36707863 355.29286105 -40.55932617 363.53662109 C-41 366 -41 366 -42 368 C-50.51344491 368.24153656 -58.57879388 367.56418037 -66.984375 366.25 C-68.16598206 366.07243164 -69.34758911 365.89486328 -70.56500244 365.71191406 C-74.29463978 365.14951873 -78.02228412 364.57497895 -81.75 364 C-84.29675253 363.61377493 -86.84362665 363.22835068 -89.390625 362.84375 C-95.59518476 361.90508054 -101.79816002 360.95646539 -108 360 C-107.52171678 349.38211257 -106.19041777 339.18772691 -104.25 328.75 C-103.98222116 327.27567836 -103.71514205 325.80122947 -103.44873047 324.32666016 C-102.77434257 320.60636539 -102.08992509 316.88800633 -101.40148926 313.17028809 C-101.00907652 311.04906397 -100.61884649 308.92745151 -100.22949219 306.80566406 C-98.83389173 299.20110293 -97.42564738 291.59898757 -96 284 C-96.99902344 284.01160156 -97.99804688 284.02320313 -99.02734375 284.03515625 C-100.96287109 284.04869141 -100.96287109 284.04869141 -102.9375 284.0625 C-104.22527344 284.07410156 -105.51304687 284.08570313 -106.83984375 284.09765625 C-110 284 -110 284 -111 283 C-111.2912016 280.46799451 -111.52404534 277.95401421 -111.71875 275.4140625 C-111.78155151 274.64250824 -111.84435303 273.87095398 -111.90905762 273.07601929 C-112.11030477 270.59266818 -112.30530898 268.1088729 -112.5 265.625 C-112.6955572 263.18319074 -112.89238216 260.74148604 -113.08934021 258.29978943 C-113.21693051 256.71365036 -113.34361403 255.12743807 -113.46937561 253.54115295 C-113.80800482 249.28523214 -114.17874928 245.03483163 -114.58984375 240.78515625 C-115.14188711 234.84868992 -115.06403921 228.95564625 -115 223 C-111.00097233 222.4920154 -107.00064616 221.99506324 -103 221.5 C-101.87464844 221.35691406 -100.74929688 221.21382812 -99.58984375 221.06640625 C-93.676703 220.34023107 -87.95736399 219.82478341 -82 220 C-81.89300781 218.7728125 -81.78601563 217.545625 -81.67578125 216.28125 C-80.99658727 210.23771397 -79.60183479 204.4078411 -78.1875 198.5 C-77.74313599 196.62042603 -77.74313599 196.62042603 -77.28979492 194.70288086 C-74.19198618 181.64149084 -70.99806852 168.60269353 -67.8125 155.5625 C-67.55487885 154.50691895 -67.29725769 153.45133789 -67.03182983 152.36376953 C-62.71633226 134.70020989 -58.08879887 117.14859625 -53.16333008 99.64526367 C-52.43184907 97.04239195 -51.70519946 94.43819888 -50.97851562 91.83398438 C-50.50550489 90.15095829 -50.03220792 88.46801262 -49.55859375 86.78515625 C-49.34601425 86.02042496 -49.13343475 85.25569366 -48.91441345 84.4677887 C-47.87823104 80.80626819 -46.74429933 77.24583362 -45.36743164 73.69702148 C-42.73227036 66.57253528 -43.70456396 62.21133905 -46.7277832 55.63305664 C-49.68941439 49.50348606 -52.85062464 43.46891463 -56.01757812 37.44335938 C-56.54416016 36.41404297 -57.07074219 35.38472656 -57.61328125 34.32421875 C-58.33704956 32.9333606 -58.33704956 32.9333606 -59.07543945 31.5144043 C-60.09093743 28.75268957 -60.21084044 27.65676718 -59 25 C-56.4296875 23.24609375 -56.4296875 23.24609375 -52.875 21.4375 C-51.89974365 20.93694092 -51.89974365 20.93694092 -50.90478516 20.42626953 C-41.89212853 15.84844509 -32.74188041 11.5386241 -23.59619141 7.23486328 C-21.35644612 6.16954152 -19.13404903 5.07826135 -16.91796875 3.96484375 C-15.81066406 3.41957031 -14.70335937 2.87429688 -13.5625 2.3125 C-12.65628906 1.85488281 -11.75007813 1.39726562 -10.81640625 0.92578125 C-7.05771896 -0.30973732 -3.9465478 -0.15617355 0 0 Z M5 193 C3.52952664 196.91063224 3.52952664 196.91063224 3 201 C4.98 201 6.96 201 9 201 C7.73025028 196.58477891 7.73025028 196.58477891 5 193 Z " fill="#D24B4F" transform="translate(496,315)"/>
<path d="M0 0 C2.11071224 2.68667208 3.79218264 5.33724357 5.3125 8.39453125 C5.74304688 9.2568335 6.17359375 10.11913574 6.6171875 11.00756836 C7.07351563 11.9331958 7.52984375 12.85882324 8 13.8125 C8.47695313 14.77357666 8.95390625 15.73465332 9.4453125 16.72485352 C13.01279331 23.93861256 16.52112713 31.18064171 20 38.4375 C20.45632813 39.38923096 20.91265625 40.34096191 21.3828125 41.3215332 C21.81335938 42.22476318 22.24390625 43.12799316 22.6875 44.05859375 C23.06261719 44.84548584 23.43773437 45.63237793 23.82421875 46.44311523 C25.27665243 49.60161564 26.63056017 52.8046404 28 56 C7.21 57.485 7.21 57.485 -14 59 C-12.87508772 51.12561404 -12.87508772 51.12561404 -12.0546875 47.7421875 C-11.8680957 46.96528564 -11.68150391 46.18838379 -11.48925781 45.38793945 C-11.28655273 44.55866943 -11.08384766 43.72939941 -10.875 42.875 C-10.66198242 41.99352295 -10.44896484 41.1120459 -10.22949219 40.20385742 C-9.75475666 38.23994974 -9.27877558 36.27634287 -8.80175781 34.31298828 C-8.07073414 31.29228449 -7.34655701 28.27001762 -6.62564087 25.24688721 C-5.99236874 22.59173678 -5.35695274 19.93710173 -4.72125244 17.28253174 C-4.254132 15.32977347 -3.78892263 13.37655837 -3.32373047 11.42333984 C-3.03643066 10.22789551 -2.74913086 9.03245117 -2.453125 7.80078125 C-2.19692383 6.72997314 -1.94072266 5.65916504 -1.67675781 4.5559082 C-1 2 -1 2 0 0 Z M4 37 C2.52952664 40.91063224 2.52952664 40.91063224 2 45 C3.98 45 5.96 45 8 45 C6.73025028 40.58477891 6.73025028 40.58477891 4 37 Z " fill="#030001" transform="translate(497,471)"/>
</svg>
